<?xml version="1.0" encoding="utf-8"?>
<!-- Generator: Adobe Illustrator 24.0.0, SVG Export Plug-In . SVG Version: 6.00 Build 0)  -->
<svg version="1.1" id="Layer_1" xmlns="http://www.w3.org/2000/svg" xmlns:xlink="http://www.w3.org/1999/xlink" x="0px" y="0px"
	 viewBox="0 0 1024 600" style="enable-background:new 0 0 1024 600;" xml:space="preserve">
<style type="text/css">
	.st0{fill:none;}
	.st1{fill:#FFFFFF;}
	.st2{fill:#FEF8D4;}
	.st3{fill:#1A1A1A;}
	.st4{fill:url(#SVGID_1_);}
</style>
<pattern  width="150.07" height="173.83" patternUnits="userSpaceOnUse" id="New_Pattern_Swatch_7" viewBox="0 -173.83 150.07 173.83" style="overflow:visible;">
	<g>
		<rect y="-173.83" class="st0" width="150.07" height="173.83"/>
		<path class="st1" d="M116.1-114.8c1.36-0.13,2.96,0.74,3.02,2.23c0.06,1.47-0.76,2.98-2.29,3.28c-1.47,0.28-2.88-0.72-3.15-2.18
			c-0.28-1.51,0.83-3.15,2.38-3.32C116.08-114.8,116.09-114.8,116.1-114.8z M118.26-112.44c-0.01-0.95-0.79-1.51-1.7-1.45
			c-1.28,0.08-2.36,1.15-1.98,2.47c0.29,1.01,1.37,1.56,2.36,1.2C117.86-110.55,118.27-111.52,118.26-112.44z"/>
		<path class="st1" d="M115.7-122.82c-0.75,0.47-1.74,0.06-2.1-0.7c-0.59-1.25,1-2.39,2.09-1.71c0.18,0.11,0.33,0.25,0.44,0.41
			C116.58-124.18,116.42-123.28,115.7-122.82z M114.68-124.48c-0.76,0.33,0.02,1.28,0.58,0.91
			C115.95-124.01,115.44-124.81,114.68-124.48z"/>
		<path class="st1" d="M94.29-4.35c-0.75,0.47-1.74,0.06-2.1-0.7c-0.59-1.25,1-2.39,2.09-1.71c0.18,0.11,0.33,0.25,0.44,0.41
			C95.17-5.71,95.01-4.81,94.29-4.35z M93.27-6.01c-0.76,0.33,0.02,1.28,0.58,0.91C94.54-5.54,94.03-6.34,93.27-6.01z"/>
		<path class="st1" d="M47.62-75.27c-0.75,0.47-1.74,0.06-2.1-0.7c-0.59-1.25,1-2.39,2.09-1.71c0.18,0.11,0.33,0.25,0.44,0.41
			C48.51-76.63,48.35-75.72,47.62-75.27z M46.61-76.93c-0.76,0.33,0.02,1.28,0.58,0.91C47.88-76.46,47.36-77.25,46.61-76.93z"/>
		<path class="st1" d="M44.72-134.23c-0.75,0.47-1.74,0.06-2.1-0.7c-0.59-1.25,1-2.39,2.09-1.71c0.18,0.11,0.33,0.25,0.44,0.41
			C45.6-135.6,45.44-134.69,44.72-134.23z M43.7-135.89c-0.76,0.33,0.02,1.28,0.58,0.91C44.97-135.43,44.46-136.22,43.7-135.89z"/>
		<path class="st1" d="M55.93-165.8l2.29-1.2l2.29,1.2c0.1,0.05,0.22,0.04,0.32-0.02c0.09-0.07,0.14-0.18,0.12-0.3l-0.44-2.54
			l1.85-1.8c0.08-0.08,0.11-0.2,0.08-0.31c-0.04-0.11-0.13-0.19-0.24-0.21l-2.55-0.37l-1.14-2.32c-0.05-0.1-0.16-0.17-0.27-0.17l0,0
			c-0.11,0-0.22,0.07-0.27,0.17l-1.14,2.32l-2.56,0.37c-0.11,0.02-0.21,0.1-0.24,0.21c-0.04,0.11-0.01,0.23,0.08,0.31l1.85,1.8
			l-0.44,2.54c-0.02,0.11,0.03,0.23,0.12,0.3c0.05,0.04,0.11,0.06,0.18,0.06C55.84-165.76,55.89-165.77,55.93-165.8z M57.05-170.77
			c0.1-0.01,0.18-0.08,0.23-0.16l0.94-1.91l0.94,1.91c0.04,0.09,0.13,0.15,0.23,0.16l2.11,0.31l-1.52,1.49
			c-0.07,0.07-0.1,0.17-0.09,0.27l0.36,2.1l-1.88-0.99c-0.09-0.05-0.19-0.05-0.28,0l-1.88,0.99l0.36-2.1
			c0.02-0.1-0.02-0.2-0.09-0.27l-1.52-1.49L57.05-170.77z"/>
		<path class="st1" d="M65.71-111.21l2.29-1.2l2.29,1.2c0.1,0.05,0.22,0.04,0.32-0.02c0.09-0.07,0.14-0.18,0.12-0.3l-0.44-2.54
			l1.85-1.8c0.08-0.08,0.11-0.2,0.08-0.31c-0.04-0.11-0.13-0.19-0.24-0.21l-2.55-0.37l-1.14-2.32c-0.05-0.1-0.16-0.17-0.27-0.17l0,0
			c-0.11,0-0.22,0.07-0.27,0.17l-1.14,2.32l-2.55,0.37c-0.11,0.02-0.21,0.1-0.24,0.21c-0.04,0.11-0.01,0.23,0.08,0.31l1.85,1.8
			l-0.44,2.54c-0.02,0.11,0.03,0.23,0.12,0.3c0.05,0.04,0.11,0.06,0.18,0.06C65.62-111.17,65.67-111.18,65.71-111.21z M66.83-116.18
			c0.1-0.01,0.18-0.08,0.23-0.16l0.94-1.91l0.94,1.91c0.04,0.09,0.13,0.15,0.23,0.16l2.11,0.31l-1.52,1.49
			c-0.07,0.07-0.1,0.17-0.09,0.27l0.36,2.1l-1.88-0.99c-0.09-0.05-0.19-0.05-0.28,0l-1.88,0.99l0.36-2.1
			c0.02-0.1-0.02-0.2-0.09-0.27l-1.52-1.49L66.83-116.18z"/>
		<path class="st2" d="M76.27-45.1l2.29-1.2l2.29,1.2c0.1,0.05,0.22,0.04,0.32-0.02c0.09-0.07,0.14-0.18,0.12-0.3l-0.44-2.54
			l1.85-1.8c0.08-0.08,0.11-0.2,0.08-0.31c-0.04-0.11-0.13-0.19-0.24-0.21l-2.55-0.37l-1.14-2.32c-0.05-0.1-0.16-0.17-0.27-0.17l0,0
			c-0.11,0-0.22,0.07-0.27,0.17l-1.14,2.32l-2.55,0.37c-0.11,0.02-0.21,0.1-0.24,0.21s-0.01,0.23,0.08,0.31l1.85,1.8l-0.44,2.54
			c-0.02,0.11,0.03,0.23,0.12,0.3c0.05,0.04,0.11,0.06,0.18,0.06C76.18-45.07,76.23-45.08,76.27-45.1z M77.39-50.08
			c0.1-0.01,0.18-0.08,0.23-0.16l0.94-1.91l0.94,1.91c0.04,0.09,0.13,0.15,0.23,0.16l2.11,0.31l-1.52,1.49
			c-0.07,0.07-0.1,0.17-0.09,0.27l0.36,2.1l-1.88-0.99c-0.09-0.05-0.19-0.05-0.28,0l-1.88,0.99l0.36-2.1
			c0.02-0.1-0.02-0.2-0.09-0.27l-1.52-1.49L77.39-50.08z"/>
		<path class="st2" d="M143.56-105.65l2.29-1.2l2.29,1.2c0.1,0.05,0.22,0.04,0.32-0.02c0.09-0.07,0.14-0.18,0.12-0.29l-0.44-2.54
			l1.85-1.8c0.08-0.08,0.11-0.2,0.08-0.31c-0.04-0.11-0.13-0.19-0.24-0.21l-2.55-0.37l-1.14-2.32c-0.05-0.1-0.16-0.17-0.27-0.17l0,0
			c-0.11,0-0.22,0.07-0.27,0.17l-1.14,2.32l-2.55,0.37c-0.11,0.02-0.21,0.1-0.24,0.21c-0.04,0.11-0.01,0.23,0.08,0.31l1.85,1.8
			l-0.44,2.54c-0.02,0.11,0.03,0.23,0.12,0.29c0.05,0.04,0.11,0.06,0.18,0.06C143.47-105.62,143.51-105.63,143.56-105.65z
			 M144.67-110.63c0.1-0.01,0.18-0.08,0.23-0.16l0.94-1.91l0.94,1.91c0.04,0.09,0.13,0.15,0.23,0.16l2.11,0.31l-1.52,1.49
			c-0.07,0.07-0.1,0.17-0.09,0.27l0.36,2.1l-1.88-0.99c-0.09-0.05-0.19-0.05-0.28,0l-1.88,0.99l0.36-2.1
			c0.02-0.1-0.02-0.2-0.09-0.27l-1.52-1.49L144.67-110.63z"/>
		<polygon class="st1" points="78.56,-150.2 81.82,-143.59 89.11,-142.53 83.83,-137.38 85.08,-130.12 78.56,-133.55 72.03,-130.12 
			73.28,-137.38 68,-142.53 75.29,-143.59 		"/>
		<polygon class="st1" points="10.56,-20.08 13.82,-13.47 21.11,-12.41 15.83,-7.26 17.08,0 10.56,-3.43 4.03,0 5.28,-7.26 
			0,-12.41 7.29,-13.47 		"/>
		<polygon class="st2" points="13.58,-98.39 15.3,-94.89 19.16,-94.33 16.37,-91.61 17.03,-87.76 13.58,-89.58 10.12,-87.76 
			10.78,-91.61 7.99,-94.33 11.85,-94.89 		"/>
		<polygon class="st2" points="109.34,-171.07 111.07,-167.58 114.93,-167.02 112.13,-164.29 112.79,-160.45 109.34,-162.26 
			105.89,-160.45 106.55,-164.29 103.75,-167.02 107.61,-167.58 		"/>
		<path class="st1" d="M35.09-37.31c-0.64,0-0.64,1,0,1C35.74-36.31,35.74-37.31,35.09-37.31z"/>
		<path class="st1" d="M33.68-51.78c-0.64,0-0.64,1,0,1C34.32-50.78,34.33-51.78,33.68-51.78z"/>
		<path class="st1" d="M69.33-64.48c-0.64,0-0.64,1,0,1C69.97-63.48,69.97-64.48,69.33-64.48z"/>
		<path class="st1" d="M108.5-80.72c-0.64,0-0.64,1,0,1C109.15-79.72,109.15-80.72,108.5-80.72z"/>
		<path class="st1" d="M137.09-40.13c-0.64,0-0.64,1,0,1C137.74-39.13,137.74-40.13,137.09-40.13z"/>
		<path class="st1" d="M119.8-24.25c-0.64,0-0.64,1,0,1C120.44-23.25,120.44-24.25,119.8-24.25z"/>
		<path class="st1" d="M119.8-36.6c-0.64,0-0.64,1,0,1C120.44-35.6,120.44-36.6,119.8-36.6z"/>
		<path class="st1" d="M129.33-77.54c-0.64,0-0.64,1,0,1C129.97-76.54,129.97-77.54,129.33-77.54z"/>
		<path class="st1" d="M29.45-110.01c-0.64,0-0.64,1,0,1C30.09-109.01,30.09-110.01,29.45-110.01z"/>
		<path class="st1" d="M34.03-111.42c-0.64,0-0.64,1,0,1C34.68-110.42,34.68-111.42,34.03-111.42z"/>
		<path class="st1" d="M36.5-104.01c-0.64,0-0.64,1,0,1C37.15-103.01,37.15-104.01,36.5-104.01z"/>
		<path class="st1" d="M53.45-106.48c-0.64,0-0.64,1,0,1C54.09-105.48,54.09-106.48,53.45-106.48z"/>
		<path class="st1" d="M73.92-84.6c-0.64,0-0.64,1,0,1C74.56-83.6,74.56-84.6,73.92-84.6z"/>
		<path class="st1" d="M11.09-44.37c-0.64,0-0.64,1,0,1C11.74-43.37,11.74-44.37,11.09-44.37z"/>
		<path class="st1" d="M21.33-28.84c-0.64,0-0.64,1,0,1C21.97-27.84,21.97-28.84,21.33-28.84z"/>
		<path class="st1" d="M31.92-23.54c-0.64,0-0.64,1,0,1C32.56-22.54,32.56-23.54,31.92-23.54z"/>
		<path class="st1" d="M49.92-14.72c-0.64,0-0.64,1,0,1C50.56-13.72,50.56-14.72,49.92-14.72z"/>
		<path class="st1" d="M70.74-23.54c-0.64,0-0.64,1,0,1C71.38-22.54,71.38-23.54,70.74-23.54z"/>
		<path class="st1" d="M131.09-137.54c-0.64,0-0.64,1,0,1C131.74-136.54,131.74-137.54,131.09-137.54z"/>
		<path class="st1" d="M137.8-157.31c-0.64,0-0.64,1,0,1C138.44-156.31,138.44-157.31,137.8-157.31z"/>
		<path class="st1" d="M145.92-161.54c-0.64,0-0.64,1,0,1C146.56-160.54,146.56-161.54,145.92-161.54z"/>
		<path class="st1" d="M31.92-156.6c-0.64,0-0.64,1,0,1C32.56-155.6,32.56-156.6,31.92-156.6z"/>
		<path class="st1" d="M29.45-165.78c-0.64,0-0.64,1,0,1C30.09-164.78,30.09-165.78,29.45-165.78z"/>
		<path class="st1" d="M13.56-161.89c-0.64,0-0.64,1,0,1C14.21-160.89,14.21-161.89,13.56-161.89z"/>
		<path class="st1" d="M16.74-136.48c-0.64,0-0.64,1,0,1C17.38-135.48,17.38-136.48,16.74-136.48z"/>
		<path class="st1" d="M52.74-149.89c-0.64,0-0.64,1,0,1C53.38-148.89,53.38-149.89,52.74-149.89z"/>
		<path class="st1" d="M62.98-154.13c-0.64,0-0.64,1,0,1C63.62-153.13,63.62-154.13,62.98-154.13z"/>
		<path class="st1" d="M76.39-161.19c-0.64,0-0.64,1,0,1C77.03-160.19,77.03-161.19,76.39-161.19z"/>
		<path class="st1" d="M81.68-168.6c-0.64,0-0.64,1,0,1C82.32-167.6,82.33-168.6,81.68-168.6z"/>
		<path class="st1" d="M102.5-146.72c-0.64,0-0.64,1,0,1C103.15-145.72,103.15-146.72,102.5-146.72z"/>
		<path class="st1" d="M99.68-134.37c-0.64,0-0.64,1,0,1C100.32-133.37,100.33-134.37,99.68-134.37z"/>
		<path class="st1" d="M95.09-126.25c-0.64,0-0.64,1,0,1C95.74-125.25,95.74-126.25,95.09-126.25z"/>
		<path class="st1" d="M95.09-92.01c-0.64,0-0.64,1,0,1C95.74-91.01,95.74-92.01,95.09-92.01z"/>
		<path class="st1" d="M140.27-53.19c-0.64,0-0.64,1,0,1C140.91-52.19,140.91-53.19,140.27-53.19z"/>
		<path class="st1" d="M144.86-63.78c-0.64,0-0.64,1,0,1C145.5-62.78,145.5-63.78,144.86-63.78z"/>
		<path class="st1" d="M138.86-75.42c-0.64,0-0.64,1,0,1C139.5-74.42,139.5-75.42,138.86-75.42z"/>
		<path class="st1" d="M102.5-54.6c-0.64,0-0.64,1,0,1C103.15-53.6,103.15-54.6,102.5-54.6z"/>
		<path class="st1" d="M25.21-72.6c-0.64,0-0.64,1,0,1C25.85-71.6,25.86-72.6,25.21-72.6z"/>
		<path class="st1" d="M94.03-28.13c-0.64,0-0.64,1,0,1C94.68-27.13,94.68-28.13,94.03-28.13z"/>
		<path class="st1" d="M118.74-9.07c-0.64,0-0.64,1,0,1C119.38-8.07,119.38-9.07,118.74-9.07z"/>
		<path class="st1" d="M133.92-2.72c-0.64,0-0.64,1,0,1C134.56-1.72,134.56-2.72,133.92-2.72z"/>
		<path class="st1" d="M145.21-92.37c-0.64,0-0.64,1,0,1C145.85-91.37,145.86-92.37,145.21-92.37z"/>
		<path class="st1" d="M148.39-129.42c-0.64,0-0.64,1,0,1C149.03-128.42,149.03-129.42,148.39-129.42z"/>
		<path class="st1" d="M55.92-44.01c-0.64,0-0.64,1,0,1C56.56-43.01,56.56-44.01,55.92-44.01z"/>
		<path class="st1" d="M39.33-34.48c-0.64,0-0.64,1,0,1C39.97-33.48,39.97-34.48,39.33-34.48z"/>
		<path class="st1" d="M45.33-28.13c-0.64,0-0.64,1,0,1C45.97-27.13,45.97-28.13,45.33-28.13z"/>
		<path class="st1" d="M36.86-15.07c-0.64,0-0.64,1,0,1C37.5-14.07,37.5-15.07,36.86-15.07z"/>
		<path class="st1" d="M42.86-2.01c-0.64,0-0.64,1,0,1C43.5-1.01,43.5-2.01,42.86-2.01z"/>
		<path class="st1" d="M25.21-39.78c-0.64,0-0.64,1,0,1C25.85-38.78,25.86-39.78,25.21-39.78z"/>
		<path class="st1" d="M82.39-95.19c-0.64,0-0.64,1,0,1C83.03-94.19,83.03-95.19,82.39-95.19z"/>
		<path class="st1" d="M93.33-83.89c-0.64,0-0.64,1,0,1C93.97-82.89,93.97-83.89,93.33-83.89z"/>
		<path class="st1" d="M108.15-94.48c-0.64,0-0.64,1,0,1C108.8-93.48,108.8-94.48,108.15-94.48z"/>
		<path class="st1" d="M115.21-72.95c-0.64,0-0.64,1,0,1C115.85-71.95,115.86-72.95,115.21-72.95z"/>
		<path class="st1" d="M88.74-105.42c-0.64,0-0.64,1,0,1C89.38-104.42,89.38-105.42,88.74-105.42z"/>
		<path class="st1" d="M107.45-136.13c-0.64,0-0.64,1,0,1C108.09-135.13,108.09-136.13,107.45-136.13z"/>
		<path class="st1" d="M114.5-153.42c-0.64,0-0.64,1,0,1C115.15-152.42,115.15-153.42,114.5-153.42z"/>
		<path class="st1" d="M122.62-153.78c-0.64,0-0.64,1,0,1C123.27-152.78,123.27-153.78,122.62-153.78z"/>
		<path class="st1" d="M118.39-144.25c-0.64,0-0.64,1,0,1C119.03-143.25,119.03-144.25,118.39-144.25z"/>
		<path class="st1" d="M22.74-156.95c-0.64,0-0.64,1,0,1C23.38-155.95,23.38-156.95,22.74-156.95z"/>
		<path class="st1" d="M31.56-147.07c-0.64,0-0.64,1,0,1C32.21-146.07,32.21-147.07,31.56-147.07z"/>
		<path class="st1" d="M7.56-148.84c-0.64,0-0.64,1,0,1C8.21-147.84,8.21-148.84,7.56-148.84z"/>
		<path class="st1" d="M7.56-119.89c-0.64,0-0.64,1,0,1C8.21-118.89,8.21-119.89,7.56-119.89z"/>
		<path class="st1" d="M9.68-67.31c-0.64,0-0.64,1,0,1C10.32-66.31,10.33-67.31,9.68-67.31z"/>
		<path class="st1" d="M109.56-45.78c-0.64,0-0.64,1,0,1C110.21-44.78,110.21-45.78,109.56-45.78z"/>
		<path class="st1" d="M116.62-37.66c-0.64,0-0.64,1,0,1C117.27-36.66,117.27-37.66,116.62-37.66z"/>
		<path class="st1" d="M128.27-29.89c-0.64,0-0.64,1,0,1C128.91-28.89,128.91-29.89,128.27-29.89z"/>
		<path class="st1" d="M36.39-43.69c-1.29,0-1.29,2,0,2C37.67-41.69,37.68-43.69,36.39-43.69z"/>
		<path class="st1" d="M125.8-68.63c-1.29,0-1.29,2,0,2C127.09-66.63,127.09-68.63,125.8-68.63z"/>
		<path class="st1" d="M59.21-149.1c-1.29,0-1.29,2,0,2C60.5-147.1,60.5-149.1,59.21-149.1z"/>
		<path class="st1" d="M112.86-147.22c-1.29,0-1.29,2,0,2C114.14-145.22,114.15-147.22,112.86-147.22z"/>
		<path class="st1" d="M20.33-167.87v0.24c0,1.29,2,1.29,2,0v-0.24C22.33-169.15,20.33-169.15,20.33-167.87z"/>
		<path class="st1" d="M83.45-84.39c-1.29,0-1.29,2,0,2C84.73-82.39,84.74-84.39,83.45-84.39z"/>
		<path class="st1" d="M93.09-78.07c-1.93,0-1.93,3,0,3C95.02-75.07,95.03-78.07,93.09-78.07z"/>
		<path class="st1" d="M26.03-151.48c-1.93,0-1.93,3,0,3C27.96-148.48,27.97-151.48,26.03-151.48z"/>
		<path class="st1" d="M126.98-146.31c-1.93,0-1.93,3,0,3C128.91-143.31,128.91-146.31,126.98-146.31z"/>
		<path class="st1" d="M39.21-25.6c-1.93,0-1.93,3,0,3C41.14-22.6,41.14-25.6,39.21-25.6z"/>
		<path class="st1" d="M111.92-31.48c-1.93,0-1.93,3,0,3C113.85-28.48,113.85-31.48,111.92-31.48z"/>
		<path class="st1" d="M127.68-21.6c-1.93,0-1.93,3,0,3C129.61-18.6,129.62-21.6,127.68-21.6z"/>
		<path class="st1" d="M10.5-132.66c-1.93,0-1.93,3,0,3C12.44-129.66,12.44-132.66,10.5-132.66z"/>
		<path class="st1" d="M123.92-111.95c-1.93,0-1.93,3,0,3C125.85-108.95,125.85-111.95,123.92-111.95z"/>
		<path class="st1" d="M74.5-7.25c-1.93,0-1.93,3,0,3C76.44-4.25,76.44-7.25,74.5-7.25z"/>
		<path class="st1" d="M40.39-131.25c-1.93,0-1.93,3,0,3C42.32-128.25,42.32-131.25,40.39-131.25z"/>
		<path class="st1" d="M81.09-126.78c-1.93,0-1.93,3,0,3C83.02-123.78,83.03-126.78,81.09-126.78z"/>
	</g>
</pattern>
<rect x="-8" transform="matrix(-1 -1.224647e-16 1.224647e-16 -1 1021 600)" class="st3" width="1037" height="600"/>
<pattern  id="SVGID_1_" xlink:href="#New_Pattern_Swatch_7" patternTransform="matrix(0.7006 0 0 0.7 -2137.3562 -2096.573)">
</pattern>
<rect x="-8" class="st4" width="1037" height="600"/>
</svg>
